#N canvas 5 52 1265 743 10;
#X msg 492 302 32;
#X obj 492 328 makefilename %c;
#X obj 459 367 symbol;
#X obj 431 127 keyname;
#X obj 492 236 spigot;
#X symbolatom 470 156 10 0 0 0 - - -;
#X obj 411 622 tabwrite text;
#X obj 486 588 f;
#X obj 519 592 + 1;
#X obj 518 618 select 999;
#X msg 518 647 0;
#X obj 75 163 gemwin;
#X obj 335 -59 table text 1000;
#X obj 170 439 gemlist;
#X obj 166 408 until;
#X msg 171 381 1000;
#X obj 172 341 t b a;
#X obj 168 474 separator;
#X obj 167 503 t a b;
#X obj 167 687 translateXYZ;
#X obj 226 533 f;
#X obj 198 316 t a b;
#X msg 241 350 0;
#X obj 266 534 + 1;
#X floatatom 226 556 5 0 0 0 - - -;
#X floatatom 190 612 5 0 0 0 - - -;
#X floatatom 325 613 5 0 0 0 - - -;
#X obj 190 648 maxlib/scale 0 39 -5.33 5.33;
#X obj 368 648 maxlib/scale 0 24 4 -4;
#X obj 198 289 scaleXYZ;
#X floatatom 231 250 5 0 0 0 - - -;
#X obj 64 580 tabread text;
#X msg 64 611 string \$1;
#X obj 190 582 index2coordinates 40 25;
#X obj 200 717 loadbang;
#X msg 267 262 0.93;
#X obj 267 235 loadbang;
#X obj 492 268 select Space;
#X obj 431 328 select 1;
#X obj 459 528 t f b;
#X obj 459 558 s bg;
#X obj 494 452 sel ä;
#X msg 494 477 228;
#X obj 167 772 text3d;
#X msg 75 84 0 \, destroy;
#X msg 200 743 4;
#X obj 169 121 loadbang;
#X msg 168 151 1;
#X obj 227 122 r on;
#X obj 259 121 r off;
#X msg 208 151 0;
#X floatatom 217 183 5 0 0 0 - - -;
#X msg 685 343 digital 13 \$1;
#X obj 685 308 tgl 30 0 empty empty empty 0 -6 0 8 -260097 -1 -1 0
1;
#X msg 662 289 pinMode 13 output;
#X obj 475 -72 receive \$0-arduino;
#X obj 475 -49 arduino 1;
#X obj 685 369 send \$0-arduino;
#X obj 475 -27 send \$0-arduino-out;
#X obj 518 840 send \$0-arduino;
#X msg 832 480 close;
#X obj 805 505 send \$0-arduino;
#X obj 990 391 arduino-test;
#X msg 230 744 font ./gtw.ttf;
#X obj 716 310 cnv 20 418 27 ttext ttext try_out_if_arduino_blinks_on_pin_13
5 15 0 18 -260097 -1 0;
#X obj 901 448 cnv 20 218 27 ttext ttext find_the_port 5 12 0 18 -260097
-1 0;
#X msg 764 472 open 4;
#N canvas 146 163 525 433 serin 0;
#X obj 180 61 cnv 15 15 15 empty \$0-number-canvas 4 4 8 0 14 -233017
-1 0;
#X obj 200 225 s \$0-number-canvas;
#X obj 60 61 hradio 15 1 1 8 empty empty empty 0 -6 0 8 -225271 -1
-1 4;
#X obj 60 13 inlet;
#X msg 200 202 label \$1;
#X obj 200 180 makefilename %d;
#X obj 59 108 int;
#X msg 59 206 open \$1;
#X obj 59 377 outlet;
#X msg 201 306 set \$1 \$2;
#X obj 59 266 trigger bang anything;
#X obj 201 286 list;
#X obj 383 383 outlet;
#X obj 384 22 netreceive 34567;
#X obj 477 43 tgl 15 0 empty empty empty 0 -6 0 10 -262144 -1 -1 0
1;
#X obj 384 41 bng 15 250 50 0 empty empty empty 0 -6 0 10 -262144 -1
-1;
#X obj 187 24 delay 15000;
#X text 345 379 close;
#X text 209 4 for open/close automation in Makefile;
#X obj 184 95 bang;
#X obj 184 137 send ARDUINO_TEST_RESET;
#X msg 184 116 set 0;
#X connect 2 0 6 0;
#X connect 2 0 19 0;
#X connect 3 0 2 0;
#X connect 4 0 1 0;
#X connect 5 0 4 0;
#X connect 6 0 5 0;
#X connect 6 0 7 0;
#X connect 7 0 10 0;
#X connect 9 0 8 0;
#X connect 10 0 8 0;
#X connect 10 1 11 0;
#X connect 11 0 9 0;
#X connect 13 0 15 0;
#X connect 13 1 14 0;
#X connect 15 0 16 0;
#X connect 15 0 12 0;
#X connect 16 0 2 0;
#X connect 19 0 21 0;
#X connect 21 0 20 0;
#X coords 0 -1 1 1 136 17 1 60 60;
#X restore 764 453 pd serin;
#X text 833 435 serial port #;
#X text 755 422 opening serial line device ...;
#X floatatom 636 653 5 0 0 0 - - -;
#X obj 609 755 delay;
#X obj 590 619 t b b a;
#X msg 518 727 digital 13 1;
#X msg 609 782 digital 13 0;
#X obj 609 810 print;
#X floatatom 678 703 5 0 0 0 - - -;
#X floatatom 702 755 5 0 0 0 - - -;
#X obj 678 679 * 450;
#X obj 459 411 sel ß;
#X msg 459 436 223;
#X obj 525 184 tgl 40 0 empty empty empty 17 7 0 10 -260097 -1 -1 0
1;
#X obj 431 235 spigot;
#X obj 532 481 tof/to_ascii_code;
#X obj 167 205 metro 200;
#X msg 64 538 \; text const 0;
#X text -8 545 clear table;
#X obj 677 729 / 150;
#X obj 198 227 gemhead 4;
#X msg 41 10 reset \, title Jeder_hat_das_Recht_seine_Meinung_in_Wort_Schrift_und_Bild_frei_zu_aeussern_und_zu_verbreiten_und_sich_aus_allgemein_zugaenglichen_Quellen_ungehindert_zu_unterrichten
\, dimen 1400 750 \, create \, 1;
#X obj 40 -18 cnv 20 318 27 ttext ttext open_the_window_for_writing
5 12 0 18 -260097 -1 0;
#X obj 566 191 cnv 20 518 27 ttext ttext press_to_start_to_type_in_typewriter-effect
5 15 0 18 -260097 -1 0;
#X text 709 318 comment;
#X connect 0 0 1 0;
#X connect 1 0 2 1;
#X connect 2 0 79 0;
#X connect 3 0 82 0;
#X connect 3 1 5 0;
#X connect 3 1 4 0;
#X connect 4 0 37 0;
#X connect 7 0 8 0;
#X connect 7 0 6 1;
#X connect 7 0 9 0;
#X connect 8 0 7 1;
#X connect 9 0 10 0;
#X connect 10 0 7 1;
#X connect 13 0 17 0;
#X connect 14 0 13 0;
#X connect 15 0 14 0;
#X connect 16 0 15 0;
#X connect 16 1 13 1;
#X connect 17 0 18 0;
#X connect 18 0 19 0;
#X connect 18 1 20 0;
#X connect 19 0 43 0;
#X connect 20 0 23 0;
#X connect 20 0 24 0;
#X connect 20 0 31 0;
#X connect 21 0 16 0;
#X connect 21 1 22 0;
#X connect 22 0 20 1;
#X connect 23 0 20 1;
#X connect 24 0 33 0;
#X connect 25 0 27 0;
#X connect 26 0 28 0;
#X connect 27 0 19 1;
#X connect 28 0 19 2;
#X connect 29 0 21 0;
#X connect 30 0 29 1;
#X connect 30 0 29 2;
#X connect 31 0 32 0;
#X connect 32 0 43 0;
#X connect 33 0 25 0;
#X connect 33 1 26 0;
#X connect 34 0 45 0;
#X connect 34 0 63 0;
#X connect 35 0 29 1;
#X connect 35 0 29 2;
#X connect 36 0 35 0;
#X connect 37 0 0 0;
#X connect 37 1 2 1;
#X connect 38 0 2 0;
#X connect 39 0 6 0;
#X connect 39 0 40 0;
#X connect 39 0 72 0;
#X connect 39 1 7 0;
#X connect 41 0 42 0;
#X connect 41 1 83 0;
#X connect 42 0 39 0;
#X connect 44 0 11 0;
#X connect 45 0 43 1;
#X connect 46 0 47 0;
#X connect 47 0 51 0;
#X connect 47 0 84 0;
#X connect 48 0 47 0;
#X connect 49 0 50 0;
#X connect 50 0 51 0;
#X connect 50 0 84 0;
#X connect 52 0 57 0;
#X connect 53 0 52 0;
#X connect 54 0 57 0;
#X connect 55 0 56 0;
#X connect 56 0 58 0;
#X connect 60 0 61 0;
#X connect 63 0 43 0;
#X connect 66 0 61 0;
#X connect 67 0 66 0;
#X connect 70 0 78 0;
#X connect 71 0 74 0;
#X connect 72 0 73 0;
#X connect 72 1 71 0;
#X connect 72 2 70 0;
#X connect 73 0 75 0;
#X connect 73 0 59 0;
#X connect 74 0 75 0;
#X connect 74 0 59 0;
#X connect 76 0 87 0;
#X connect 78 0 76 0;
#X connect 79 0 80 0;
#X connect 79 1 41 0;
#X connect 80 0 39 0;
#X connect 81 0 4 1;
#X connect 81 0 82 1;
#X connect 82 0 38 0;
#X connect 83 0 39 0;
#X connect 84 0 88 0;
#X connect 85 0 31 0;
#X connect 87 0 77 0;
#X connect 87 0 71 1;
#X connect 88 0 29 0;
#X connect 89 0 11 0;
