#N canvas 0 0 450 300 10;
#X obj 82 113 coordinates2index 40 25;
#X floatatom 81 73 5 0 0 0 x - -;
#X floatatom 151 74 5 0 0 0 y - -;
#X floatatom 82 159 5 0 0 0 index - -;
#X msg 218 74 80 25;
#X text 125 49 comment;
#X text 259 74 set new values;
#X connect 0 0 3 0;
#X connect 1 0 0 0;
#X connect 2 0 0 1;
#X connect 4 0 0 2;
