#N canvas 538 74 450 300 10;
#X obj 113 14 inlet;
#X obj 196 15 inlet;
#X obj 112 57 t f f;
#X obj 106 113 mod \$1;
#X obj 202 117 / \$1;
#X obj 204 147 mod \$2;
#X obj 202 74 t f f;
#X obj 245 75 - 1;
#X obj 195 45 unpack f f;
#X obj 105 190 outlet;
#X obj 203 188 outlet;
#X text 411 11 index2coordinates: 2010 by vm creation arguments: size
x size y (total amount of fields);
#X text 237 11 change range with list;
#X text 59 12 index;
#X text 153 191 x;
#X text 250 191 y;
#X connect 0 0 2 0;
#X connect 1 0 8 0;
#X connect 2 0 3 0;
#X connect 2 1 4 0;
#X connect 3 0 9 0;
#X connect 4 0 5 0;
#X connect 5 0 10 0;
#X connect 6 0 3 1;
#X connect 6 1 4 1;
#X connect 7 0 5 1;
#X connect 8 0 6 0;
#X connect 8 1 7 0;
