#N canvas 3 22 1680 1002 10;
#X obj 1360 397 cnv 15 100 22 empty empty empty 20 12 0 14 -253938
-66577 0;
#X obj 1123 481 cnv 15 60 22 empty empty empty 20 12 0 14 -253938 -66577
0;
#N canvas 146 163 525 433 serin 0;
#X obj 180 61 cnv 15 15 15 empty \$0-number-canvas 2 4 8 0 14 -233017
-1 0;
#X obj 200 225 s \$0-number-canvas;
#X obj 60 61 hradio 15 1 1 8 empty empty empty 0 -6 0 8 -225271 -1
-1 2;
#X obj 60 13 inlet;
#X msg 200 202 label \$1;
#X obj 200 180 makefilename %d;
#X obj 59 108 int;
#X msg 59 206 open \$1;
#X obj 59 377 outlet;
#X msg 201 306 set \$1 \$2;
#X obj 59 266 trigger bang anything;
#X obj 201 286 list;
#X obj 383 383 outlet;
#X obj 384 22 netreceive 34567;
#X obj 477 43 tgl 15 0 empty empty empty 0 -6 0 10 -262144 -1 -1 0
1;
#X obj 384 41 bng 15 250 50 0 empty empty empty 0 -6 0 10 -262144 -1
-1;
#X obj 187 24 delay 15000;
#X text 345 379 close;
#X text 209 4 for open/close automation in Makefile;
#X obj 184 95 bang;
#X obj 184 137 send ARDUINO_TEST_RESET;
#X msg 184 116 set 0;
#X connect 2 0 6 0;
#X connect 2 0 19 0;
#X connect 3 0 2 0;
#X connect 4 0 1 0;
#X connect 5 0 4 0;
#X connect 6 0 5 0;
#X connect 6 0 7 0;
#X connect 7 0 10 0;
#X connect 9 0 8 0;
#X connect 10 0 8 0;
#X connect 10 1 11 0;
#X connect 11 0 9 0;
#X connect 13 0 15 0;
#X connect 13 1 14 0;
#X connect 15 0 16 0;
#X connect 15 0 12 0;
#X connect 16 0 2 0;
#X connect 19 0 21 0;
#X connect 21 0 20 0;
#X coords 0 -1 1 1 136 17 1 60 60;
#X restore 1129 460 pd serin;
#X text 1126 442 serial port #;
#X msg 1217 582 close;
#N canvas 763 71 475 478 sending 0;
#X obj 69 228 cnv 15 100 22 empty empty empty 20 12 0 14 -253938 -66577
0;
#X obj 78 434 outlet;
#X msg 78 231 digital 13 0;
#X obj 127 148 tgl 15 0 empty ARDUINO_TEST_RESET 7 4 -6 1 12 -233017
-1 -1 0 1;
#X obj 144 148 tgl 15 0 empty ARDUINO_TEST_RESET 8 4 -6 1 12 -233017
-1 -1 0 1;
#X obj 161 148 tgl 15 0 empty ARDUINO_TEST_RESET 9 4 -6 1 12 -233017
-1 -1 0 1;
#X obj 178 148 tgl 15 0 empty ARDUINO_TEST_RESET 10 0 -6 1 12 -233017
-1 -1 0 1;
#X obj 195 148 tgl 15 0 empty ARDUINO_TEST_RESET 11 0 -6 1 12 -233017
-1 -1 0 1;
#X obj 212 148 tgl 15 0 empty ARDUINO_TEST_RESET 12 0 -6 1 12 -233017
-1 -1 0 1;
#X obj 229 148 tgl 15 0 empty ARDUINO_TEST_RESET 13 0 -6 1 12 -233017
-1 -1 0 1;
#X obj 42 148 tgl 15 0 empty ARDUINO_TEST_RESET 2 4 -6 1 12 -233017
-1 -1 0 1;
#X obj 59 148 tgl 15 0 empty ARDUINO_TEST_RESET 3 4 -6 1 12 -233017
-1 -1 0 1;
#X obj 76 148 tgl 15 0 empty ARDUINO_TEST_RESET 4 4 -6 1 12 -233017
-1 -1 0 1;
#X obj 93 148 tgl 15 0 empty ARDUINO_TEST_RESET 5 4 -6 1 12 -233017
-1 -1 0 1;
#X obj 110 148 tgl 15 0 empty ARDUINO_TEST_RESET 6 4 -6 1 12 -233017
-1 -1 0 1;
#X obj 418 123 tgl 25 0 empty ARDUINO_TEST_RESET ALL 2 12 0 12 -262144
-1 -1 0 1;
#X obj 388 72 tgl 15 0 empty empty empty 0 -6 0 8 -262144 -1 -1 0 16383
;
#X obj 388 92 metro 100;
#X obj 301 9 inlet;
#X obj 301 43 trigger 0 float;
#X obj 301 64 select 0;
#X msg 301 84 0;
#X msg 405 389 port 1 0;
#X msg 263 389 port 0 0;
#X msg 189 389 port 0 255;
#X msg 331 389 port 1 255;
#X text 95 291 or send 8-bit ports in one message:;
#X msg 159 338 port 1 \$1;
#X msg 91 338 port 0 \$1;
#X msg 230 338 port 2 \$1;
#X obj 362 297 tgl 25 0 empty ARDUINO_TEST_RESET ALL 2 12 0 12 -262144
-1 -1 0 1;
#X obj 362 246 tgl 15 0 empty empty empty 0 -6 0 8 -262144 -1 -1 0
16383;
#X obj 362 266 metro 100;
#X floatatom 362 329 5 0 0 0 - - -;
#X obj 246 148 tgl 15 0 empty ARDUINO_TEST_RESET 14 0 -6 1 12 -233017
-1 -1 0 1;
#X obj 263 148 tgl 15 0 empty ARDUINO_TEST_RESET 15 0 -6 1 12 -233017
-1 -1 0 1;
#X obj 280 148 tgl 15 0 empty ARDUINO_TEST_RESET 16 0 -6 1 12 -233017
-1 -1 0 1;
#X obj 297 148 tgl 15 0 empty ARDUINO_TEST_RESET 17 0 -6 1 12 -233017
-1 -1 0 1;
#X obj 314 148 tgl 15 0 empty ARDUINO_TEST_RESET 18 0 -6 1 12 -233017
-1 -1 0 1;
#X obj 331 148 tgl 15 0 empty ARDUINO_TEST_RESET 19 0 -6 1 12 -233017
-1 -1 0 1;
#X obj 348 148 tgl 15 0 empty ARDUINO_TEST_RESET 20 0 -6 1 12 -233017
-1 -1 0 1;
#X obj 365 148 tgl 15 0 empty ARDUINO_TEST_RESET 21 0 -6 1 12 -233017
-1 -1 0 1;
#N canvas 314 233 1035 340 generate 0;
#X obj 12 24 inlet;
#X obj 52 24 inlet;
#X obj 91 24 inlet;
#X obj 131 24 inlet;
#X obj 171 24 inlet;
#X obj 211 24 inlet;
#X obj 250 24 inlet;
#X obj 290 24 inlet;
#X obj 331 23 inlet;
#X obj 371 23 inlet;
#X obj 410 23 inlet;
#X obj 450 23 inlet;
#X obj 490 23 inlet;
#X msg 12 66 digital 0 \$1;
#X msg 52 88 digital 1 \$1;
#X msg 91 110 digital 2 \$1;
#X msg 131 130 digital 3 \$1;
#X msg 171 62 digital 4 \$1;
#X msg 211 84 digital 5 \$1;
#X msg 250 106 digital 6 \$1;
#X msg 290 126 digital 7 \$1;
#X msg 331 58 digital 8 \$1;
#X msg 371 80 digital 9 \$1;
#X msg 410 102 digital 10 \$1;
#X msg 450 122 digital 11 \$1;
#X msg 490 50 digital 12 \$1;
#X obj 529 23 inlet;
#X msg 529 70 digital 13 \$1;
#X obj 513 302 outlet;
#X obj 513 263 trigger bang anything;
#X obj 513 214 list prepend set;
#X obj 513 238 list trim;
#X obj 570 23 inlet;
#X obj 610 23 inlet;
#X obj 650 23 inlet;
#X obj 689 23 inlet;
#X msg 570 102 digital 14 \$1;
#X msg 610 122 digital 15 \$1;
#X msg 650 50 digital 16 \$1;
#X msg 689 70 digital 17 \$1;
#X obj 730 23 inlet;
#X obj 770 23 inlet;
#X obj 810 23 inlet;
#X obj 849 23 inlet;
#X msg 730 102 digital 18 \$1;
#X msg 770 122 digital 19 \$1;
#X msg 810 50 digital 20 \$1;
#X msg 849 70 digital 21 \$1;
#X obj 890 23 inlet;
#X obj 930 23 inlet;
#X msg 890 102 digital 22 \$1;
#X msg 930 122 digital 23 \$1;
#X connect 0 0 13 0;
#X connect 1 0 14 0;
#X connect 2 0 15 0;
#X connect 3 0 16 0;
#X connect 4 0 17 0;
#X connect 5 0 18 0;
#X connect 6 0 19 0;
#X connect 7 0 20 0;
#X connect 8 0 21 0;
#X connect 9 0 22 0;
#X connect 10 0 23 0;
#X connect 11 0 24 0;
#X connect 12 0 25 0;
#X connect 13 0 30 0;
#X connect 14 0 30 0;
#X connect 15 0 30 0;
#X connect 16 0 30 0;
#X connect 17 0 30 0;
#X connect 18 0 30 0;
#X connect 19 0 30 0;
#X connect 20 0 30 0;
#X connect 21 0 30 0;
#X connect 22 0 30 0;
#X connect 23 0 30 0;
#X connect 24 0 30 0;
#X connect 25 0 30 0;
#X connect 26 0 27 0;
#X connect 27 0 30 0;
#X connect 29 0 28 0;
#X connect 29 1 28 0;
#X connect 30 0 31 0;
#X connect 31 0 29 0;
#X connect 32 0 36 0;
#X connect 33 0 37 0;
#X connect 34 0 38 0;
#X connect 35 0 39 0;
#X connect 36 0 30 0;
#X connect 37 0 30 0;
#X connect 38 0 30 0;
#X connect 39 0 30 0;
#X connect 40 0 44 0;
#X connect 41 0 45 0;
#X connect 42 0 46 0;
#X connect 43 0 47 0;
#X connect 44 0 30 0;
#X connect 45 0 30 0;
#X connect 46 0 30 0;
#X connect 47 0 30 0;
#X connect 48 0 50 0;
#X connect 49 0 51 0;
#X connect 50 0 30 0;
#X connect 51 0 30 0;
#X restore 78 201 pd generate digital out messages ------------------
;
#X obj 382 148 tgl 15 0 empty ARDUINO_TEST_RESET 22 0 -6 1 12 -233017
-1 -1 0 1;
#X obj 399 148 tgl 15 0 empty ARDUINO_TEST_RESET 23 0 -6 1 12 -233017
-1 -1 0 1;
#X obj 8 148 tgl 15 0 empty ARDUINO_TEST_RESET 0 4 -6 1 12 -233017
-1 -1 0 1;
#X obj 25 148 tgl 15 0 empty ARDUINO_TEST_RESET 1 4 -6 1 12 -233017
-1 -1 0 1;
#X connect 2 0 1 0;
#X connect 3 0 42 7;
#X connect 4 0 42 8;
#X connect 5 0 42 9;
#X connect 6 0 42 10;
#X connect 7 0 42 11;
#X connect 8 0 42 12;
#X connect 9 0 42 13;
#X connect 10 0 42 2;
#X connect 11 0 42 3;
#X connect 12 0 42 4;
#X connect 13 0 42 5;
#X connect 14 0 42 6;
#X connect 15 0 9 0;
#X connect 15 0 8 0;
#X connect 15 0 7 0;
#X connect 15 0 6 0;
#X connect 15 0 5 0;
#X connect 15 0 4 0;
#X connect 15 0 3 0;
#X connect 15 0 14 0;
#X connect 15 0 13 0;
#X connect 15 0 12 0;
#X connect 15 0 11 0;
#X connect 15 0 10 0;
#X connect 15 0 39 0;
#X connect 15 0 40 0;
#X connect 15 0 41 0;
#X connect 15 0 38 0;
#X connect 15 0 37 0;
#X connect 15 0 36 0;
#X connect 15 0 35 0;
#X connect 15 0 34 0;
#X connect 15 0 44 0;
#X connect 15 0 43 0;
#X connect 15 0 46 0;
#X connect 15 0 45 0;
#X connect 16 0 17 0;
#X connect 17 0 15 0;
#X connect 18 0 19 0;
#X connect 19 0 20 0;
#X connect 19 1 16 0;
#X connect 20 0 21 0;
#X connect 21 0 15 0;
#X connect 22 0 1 0;
#X connect 23 0 1 0;
#X connect 24 0 1 0;
#X connect 25 0 1 0;
#X connect 27 0 1 0;
#X connect 28 0 1 0;
#X connect 29 0 1 0;
#X connect 30 0 33 0;
#X connect 30 0 29 0;
#X connect 30 0 27 0;
#X connect 30 0 28 0;
#X connect 31 0 32 0;
#X connect 32 0 30 0;
#X connect 34 0 42 14;
#X connect 35 0 42 15;
#X connect 36 0 42 16;
#X connect 37 0 42 17;
#X connect 38 0 42 18;
#X connect 39 0 42 19;
#X connect 40 0 42 20;
#X connect 41 0 42 21;
#X connect 42 0 2 0;
#X connect 43 0 42 22;
#X connect 44 0 42 23;
#X connect 45 0 42 0;
#X connect 46 0 42 1;
#X restore 1364 461 pd sending digital outs;
#X obj 1364 442 tgl 15 0 empty ARDUINO_TEST_RESET empty 0 -6 0 8 -225271
-1 -1 0 16383;
#N canvas 3 48 451 224 ver 0;
#X obj 23 7 inlet;
#X obj 250 100 cnv 15 145 17 empty \$0-version_cnv Firmata-2.3 4 10
0 12 -203904 -1 0;
#X obj 23 157 send \$0-version_cnv;
#X msg 23 132 label \$1;
#X obj 48 103 symbol;
#X obj 38 77 loadbang;
#X msg 96 78 bang;
#X obj 309 163 outlet;
#X obj 23 52 zexy/makesymbol Firmata-%s.%s;
#X obj 23 29 route version bang;
#X connect 0 0 9 0;
#X connect 3 0 2 0;
#X connect 4 0 3 0;
#X connect 5 0 4 0;
#X connect 6 0 4 0;
#X connect 8 0 3 0;
#X connect 9 0 8 0;
#X connect 9 1 7 0;
#X connect 9 1 6 0;
#X connect 9 2 7 0;
#X coords 0 -1 1 1 145 17 1 250 100;
#X restore 1362 537 pd ver;
#X obj 1127 537 arduino 1;
#N canvas 649 518 411 212 firmware 0;
#X obj 123 2 inlet;
#X obj 250 100 cnv 15 145 17 empty \$0-firmware_cnv StandardFirmata.ino-2.3
4 10 0 12 -232576 -66577 0;
#X msg 123 156 label \$1;
#X obj 148 127 symbol;
#X obj 138 101 loadbang;
#X msg 196 102 bang;
#X obj 123 181 send \$0-firmware_cnv;
#X obj 123 24 route firmware;
#X obj 18 181 print Firmware;
#X obj 123 49 list;
#X obj 123 80 zexy/makesymbol %s-%s.%s;
#X obj 18 151 list trim;
#X obj 204 45 route bang;
#X connect 0 0 7 0;
#X connect 2 0 6 0;
#X connect 3 0 2 0;
#X connect 4 0 3 0;
#X connect 5 0 3 0;
#X connect 7 0 9 0;
#X connect 7 1 12 0;
#X connect 9 0 10 0;
#X connect 10 0 2 0;
#X connect 10 0 11 0;
#X connect 11 0 8 0;
#X connect 12 0 5 0;
#X coords 0 -1 1 1 145 17 1 250 100;
#X restore 1362 557 pd firmware;
#N canvas 626 98 404 287 device 0;
#X obj 35 60 inlet;
#X obj 35 118 route open port ports;
#X obj 35 169 tgl 15 0 empty empty open -3 20 0 10 -262144 -1 -1 0
1;
#X floatatom 76 170 5 0 0 3 port - -;
#X obj 117 170 print comport_ports;
#X obj 252 170 outlet;
#X obj 235 74 receive ARDUINO_TEST_RESET;
#X obj 235 97 bang;
#X connect 0 0 1 0;
#X connect 1 0 2 0;
#X connect 1 1 3 0;
#X connect 1 2 4 0;
#X connect 1 3 5 0;
#X connect 6 0 7 0;
#X connect 7 0 5 0;
#X restore 1362 515 pd device info;
#X text 1454 515 <- open to see info;
#N canvas 419 605 446 317 pinMode 0;
#X obj 94 267 outlet;
#X obj 122 100 vradio 10 1 0 6 THIS_HIDES_THE_OUTLET ARDUINO_TEST_RESET
2 2 -8 0 10 -261682 -1 -1 0;
#X obj 132 100 vradio 10 1 0 6 THIS_HIDES_THE_OUTLET ARDUINO_TEST_RESET
3 2 -8 0 10 -261682 -1 -1 0;
#X obj 142 100 vradio 10 1 0 6 THIS_HIDES_THE_OUTLET ARDUINO_TEST_RESET
4 2 -8 0 10 -261682 -1 -1 0;
#X obj 152 100 vradio 10 1 0 6 THIS_HIDES_THE_OUTLET ARDUINO_TEST_RESET
5 2 -8 0 10 -261682 -1 -1 0;
#X obj 162 100 vradio 10 1 0 6 THIS_HIDES_THE_OUTLET ARDUINO_TEST_RESET
6 2 -8 0 10 -261682 -1 -1 0;
#X obj 172 100 vradio 10 1 0 6 THIS_HIDES_THE_OUTLET ARDUINO_TEST_RESET
7 2 -8 0 10 -261682 -1 -1 0;
#X obj 182 100 vradio 10 1 0 6 THIS_HIDES_THE_OUTLET ARDUINO_TEST_RESET
8 2 -8 0 10 -261682 -1 -1 0;
#X obj 192 100 vradio 10 1 0 6 THIS_HIDES_THE_OUTLET ARDUINO_TEST_RESET
9 2 -8 0 10 -261682 -1 -1 0;
#X obj 202 100 vradio 10 1 0 6 THIS_HIDES_THE_OUTLET ARDUINO_TEST_RESET
10 0 -8 0 8 -261682 -1 -1 0;
#X obj 212 100 vradio 10 1 0 6 THIS_HIDES_THE_OUTLET ARDUINO_TEST_RESET
11 0 -8 0 8 -261682 -1 -1 0;
#X obj 222 100 vradio 10 1 0 6 THIS_HIDES_THE_OUTLET ARDUINO_TEST_RESET
12 0 -8 0 8 -261682 -1 -1 0;
#X obj 232 100 vradio 10 1 0 6 THIS_HIDES_THE_OUTLET ARDUINO_TEST_RESET
13 0 -8 0 8 -261682 -1 -1 0;
#X obj 242 100 vradio 10 1 0 6 THIS_HIDES_THE_OUTLET ARDUINO_TEST_RESET
14 0 -8 0 8 -261682 -1 -1 0;
#X obj 252 100 vradio 10 1 0 6 THIS_HIDES_THE_OUTLET ARDUINO_TEST_RESET
15 0 -8 0 8 -261682 -1 -1 0;
#X obj 262 100 vradio 10 1 0 6 THIS_HIDES_THE_OUTLET ARDUINO_TEST_RESET
16 0 -8 0 8 -261682 -1 -1 0;
#X obj 272 100 vradio 10 1 0 6 THIS_HIDES_THE_OUTLET ARDUINO_TEST_RESET
17 0 -8 0 8 -261682 -1 -1 0;
#X obj 282 100 vradio 10 1 0 6 THIS_HIDES_THE_OUTLET ARDUINO_TEST_RESET
18 0 -8 0 8 -261682 -1 -1 0;
#X obj 292 100 vradio 10 1 0 6 THIS_HIDES_THE_OUTLET ARDUINO_TEST_RESET
19 0 -8 0 8 -261682 -1 -1 0;
#X obj 302 100 vradio 10 1 0 6 THIS_HIDES_THE_OUTLET ARDUINO_TEST_RESET
20 0 -8 0 8 -261682 -1 -1 0;
#X obj 312 100 vradio 10 1 0 6 THIS_HIDES_THE_OUTLET ARDUINO_TEST_RESET
21 0 -8 0 8 -261682 -1 -1 0;
#N canvas 72 484 1069 446 send-to-arduino---------------------- 0;
#X obj 49 14 inlet;
#X obj 89 14 inlet;
#X obj 128 14 inlet;
#X obj 168 14 inlet;
#X obj 208 14 inlet;
#X obj 248 14 inlet;
#X obj 287 14 inlet;
#X obj 327 14 inlet;
#X obj 368 13 inlet;
#X obj 408 13 inlet;
#X obj 447 13 inlet;
#X obj 487 13 inlet;
#X obj 527 13 inlet;
#X msg 49 56 pinMode 0 \$1;
#X msg 89 78 pinMode 1 \$1;
#X msg 128 100 pinMode 2 \$1;
#X msg 168 120 pinMode 3 \$1;
#X msg 208 52 pinMode 4 \$1;
#X msg 248 74 pinMode 5 \$1;
#X msg 287 96 pinMode 6 \$1;
#X msg 327 116 pinMode 7 \$1;
#X msg 368 48 pinMode 8 \$1;
#X msg 408 70 pinMode 9 \$1;
#X msg 447 92 pinMode 10 \$1;
#X msg 487 112 pinMode 11 \$1;
#X msg 527 40 pinMode 12 \$1;
#X obj 566 13 inlet;
#X msg 566 60 pinMode 13 \$1;
#X obj 607 13 inlet;
#X obj 647 13 inlet;
#X obj 687 13 inlet;
#X obj 726 13 inlet;
#X obj 767 13 inlet;
#X obj 807 13 inlet;
#X obj 847 13 inlet;
#X obj 886 13 inlet;
#X msg 607 92 pinMode 14 \$1;
#X msg 647 112 pinMode 15 \$1;
#X msg 687 40 pinMode 16 \$1;
#X msg 726 60 pinMode 17 \$1;
#X msg 767 92 pinMode 18 \$1;
#X msg 807 112 pinMode 19 \$1;
#X msg 847 40 pinMode 20 \$1;
#X msg 886 60 pinMode 21 \$1;
#X obj 927 13 inlet;
#X obj 967 13 inlet;
#X msg 927 92 pinMode 22 \$1;
#X msg 967 112 pinMode 23 \$1;
#X obj 521 427 outlet;
#X obj 481 403 trigger bang anything;
#X obj 481 358 list prepend set;
#X obj 481 380 list trim;
#X obj 481 199 list;
#X obj 481 221 unpack symbol float float;
#X obj 481 331 pack symbol float symbol;
#X obj 622 311 symbol;
#X msg 659 284 analog;
#X msg 707 284 pwm;
#X msg 737 284 servo;
#X obj 739 364 list trim;
#X obj 739 341 list prepend WARNING Unsupported pin mode:;
#X obj 739 386 print [arduino];
#X msg 568 284 input;
#X msg 609 284 output;
#X obj 628 240 - 1;
#X obj 628 259 select 0 1 2 3 4 -1;
#X text 757 258 (-1 == NONE);
#X connect 0 0 13 0;
#X connect 1 0 14 0;
#X connect 2 0 15 0;
#X connect 3 0 16 0;
#X connect 4 0 17 0;
#X connect 5 0 18 0;
#X connect 6 0 19 0;
#X connect 7 0 20 0;
#X connect 8 0 21 0;
#X connect 9 0 22 0;
#X connect 10 0 23 0;
#X connect 11 0 24 0;
#X connect 12 0 25 0;
#X connect 13 0 52 0;
#X connect 14 0 52 0;
#X connect 15 0 52 0;
#X connect 16 0 52 0;
#X connect 17 0 52 0;
#X connect 18 0 52 0;
#X connect 19 0 52 0;
#X connect 20 0 52 0;
#X connect 21 0 52 0;
#X connect 22 0 52 0;
#X connect 23 0 52 0;
#X connect 24 0 52 0;
#X connect 25 0 52 0;
#X connect 26 0 27 0;
#X connect 27 0 52 0;
#X connect 28 0 36 0;
#X connect 29 0 37 0;
#X connect 30 0 38 0;
#X connect 31 0 39 0;
#X connect 32 0 40 0;
#X connect 33 0 41 0;
#X connect 34 0 42 0;
#X connect 35 0 43 0;
#X connect 36 0 52 0;
#X connect 37 0 52 0;
#X connect 38 0 52 0;
#X connect 39 0 52 0;
#X connect 40 0 52 0;
#X connect 41 0 52 0;
#X connect 42 0 52 0;
#X connect 43 0 52 0;
#X connect 44 0 46 0;
#X connect 45 0 47 0;
#X connect 46 0 52 0;
#X connect 47 0 52 0;
#X connect 49 0 48 0;
#X connect 49 1 48 0;
#X connect 50 0 51 0;
#X connect 51 0 49 0;
#X connect 52 0 53 0;
#X connect 53 0 54 0;
#X connect 53 1 54 1;
#X connect 53 2 64 0;
#X connect 54 0 50 0;
#X connect 55 0 54 2;
#X connect 56 0 55 0;
#X connect 57 0 55 0;
#X connect 58 0 55 0;
#X connect 59 0 61 0;
#X connect 60 0 59 0;
#X connect 62 0 55 0;
#X connect 63 0 55 0;
#X connect 64 0 65 0;
#X connect 65 0 62 0;
#X connect 65 1 63 0;
#X connect 65 2 56 0;
#X connect 65 3 57 0;
#X connect 65 4 58 0;
#X connect 65 6 60 0;
#X restore 94 189 pd send-to-arduino----------------------;
#X obj 322 100 vradio 10 1 0 6 THIS_HIDES_THE_OUTLET ARDUINO_TEST_RESET
22 0 -8 0 8 -261682 -1 -1 0;
#X obj 332 100 vradio 10 1 0 6 THIS_HIDES_THE_OUTLET ARDUINO_TEST_RESET
23 0 -8 0 8 -261682 -1 -1 0;
#X obj 100 100 cnv 10 10 60 empty empty Rx 0 23 0 8 -191407 -86277
0;
#X obj 111 100 cnv 10 10 60 empty empty Tx 0 23 0 8 -191407 -13381
0;
#X connect 1 0 21 2;
#X connect 2 0 21 3;
#X connect 3 0 21 4;
#X connect 4 0 21 5;
#X connect 5 0 21 6;
#X connect 6 0 21 7;
#X connect 7 0 21 8;
#X connect 8 0 21 9;
#X connect 9 0 21 10;
#X connect 10 0 21 11;
#X connect 11 0 21 12;
#X connect 12 0 21 13;
#X connect 13 0 21 14;
#X connect 14 0 21 15;
#X connect 15 0 21 16;
#X connect 16 0 21 17;
#X connect 17 0 21 18;
#X connect 18 0 21 19;
#X connect 19 0 21 20;
#X connect 20 0 21 21;
#X connect 21 0 0 0;
#X connect 22 0 21 22;
#X connect 23 0 21 23;
#X coords 0 -1 1 1 242 60 2 100 100;
#X restore 1366 335 pd pinMode;
#X text 1613 380 servo;
#X text 1613 370 pwm;
#X text 1613 342 input;
#X text 1613 351 output;
#X text 1613 361 analog;
#X text 1216 316 configure mode for each pin:;
#X text 1382 441 <-- pulse all outputs;
#X text 1613 331 NONE;
#X msg 1129 483 open 2;
#X msg 1366 399 pinMode 12 output;
#X obj 726 878 ezdac~;
#X obj 220 224 sigmund~ -npeak 10 peaks;
#X obj 220 252 route 0 1 2 3 4 5 6 7 8 9;
#X obj 218 438 unpack 0 0 0 0;
#X floatatom 113 561 5 0 0 0 - - -;
#X obj 180 47 adc~ 1 2 3 4;
#X floatatom 113 630 5 0 0 0 - - -;
#X floatatom 128 649 5 0 0 0 - - -;
#X obj 113 670 +;
#X floatatom 113 695 5 0 0 0 - - -;
#X obj 503 366 env~;
#X floatatom 503 392 5 0 0 0 - - -;
#X floatatom 505 445 5 0 0 0 - - -;
#X obj 113 718 == 2;
#X floatatom 113 741 5 0 0 0 - - -;
#X obj 834 -157 adc~ 1 2 3 4;
#X obj 787 -29 env~;
#X floatatom 787 -5 5 0 0 0 - - -;
#X obj 867 -32 env~;
#X floatatom 867 -8 5 0 0 0 - - -;
#X obj 945 -31 env~;
#X floatatom 945 -7 5 0 0 0 - - -;
#X obj 1023 -31 env~;
#X floatatom 1023 -7 5 0 0 0 - - -;
#X floatatom 945 41 5 0 0 0 - - -;
#X floatatom 945 87 5 0 0 0 - - -;
#X obj 945 112 sel 1;
#X obj 946 141 tgl 40 0 empty empty empty 17 7 0 10 -262144 -1 -1 0
1;
#X floatatom 1023 42 5 0 0 0 - - -;
#X floatatom 1023 88 5 0 0 0 - - -;
#X obj 1024 142 tgl 40 0 empty empty empty 17 7 0 10 -262144 -1 -1
0 1;
#X floatatom 867 41 5 0 0 0 - - -;
#X floatatom 867 87 5 0 0 0 - - -;
#X obj 867 112 sel 1;
#X obj 868 141 tgl 40 0 empty empty empty 17 7 0 10 -262144 -1 -1 0
1;
#X floatatom 787 41 5 0 0 0 - - -;
#X floatatom 787 87 5 0 0 0 - - -;
#X obj 787 112 sel 1;
#X obj 788 141 tgl 40 0 empty empty empty 17 7 0 10 -262144 -1 -1 0
1;
#X obj 867 66 > 40;
#X obj 945 64 > 50;
#X obj 1023 65 > 30;
#X obj 787 64 > 25;
#X obj 787 18 speedlim 2;
#X obj 867 18 speedlim 2;
#X obj 945 18 speedlim 2;
#X obj 1023 19 speedlim 2;
#X text 1190 -97 1 = kurz \, gelbliche Flasche;
#X text 1190 -77 2 = Neutrik \, Cola mittel;
#X text 1190 -57 3 = Pflanzenkabel \, Selterflasche;
#X text 1190 -37 4 = Git.Tonabnehmer \, Cola groß;
#X obj 379 225 sigmund~ -npeak 10 peaks;
#X obj 379 253 route 0 1 2 3 4 5 6 7 8 9;
#X obj 379 278 unpack 0 0 0 0;
#X floatatom 379 304 5 0 0 0 - - -;
#X floatatom 379 373 5 0 0 0 - - -;
#X floatatom 394 392 5 0 0 0 - - -;
#X obj 379 413 +;
#X floatatom 379 438 5 0 0 0 - - -;
#X obj 379 328 > 125;
#X obj 394 349 < 135;
#X obj 379 461 == 2;
#X floatatom 379 484 5 0 0 0 - - -;
#X obj 113 763 ignore 10;
#X obj 379 505 ignore 10;
#X msg 749 240 digital 12 0;
#X msg 749 269 digital 12 1;
#X msg 850 241 digital 13 0;
#X msg 850 270 digital 13 1;
#X msg 943 240 digital 11 0;
#X msg 943 269 digital 11 1;
#X msg 1035 241 digital 9 0;
#X msg 1035 270 digital 9 1;
#X obj 748 -65 spigot~;
#X obj 828 -66 spigot~;
#X obj 505 492 tgl 40 0 empty empty empty 17 7 0 10 -262144 -1 -1 0
1;
#X obj 505 418 > 30;
#X msg 525 896 digital 13 0;
#X msg 503 870 digital 13 1;
#X obj 505 558 change;
#X obj 506 585 sel 1;
#X floatatom 203 562 5 0 0 0 - - -;
#X floatatom 203 631 5 0 0 0 - - -;
#X floatatom 218 650 5 0 0 0 - - -;
#X obj 203 671 +;
#X floatatom 203 696 5 0 0 0 - - -;
#X obj 203 719 == 2;
#X floatatom 203 742 5 0 0 0 - - -;
#X obj 203 764 ignore 10;
#X floatatom 290 561 5 0 0 0 - - -;
#X floatatom 290 630 5 0 0 0 - - -;
#X floatatom 305 649 5 0 0 0 - - -;
#X obj 290 670 +;
#X floatatom 290 695 5 0 0 0 - - -;
#X obj 290 718 == 2;
#X floatatom 290 741 5 0 0 0 - - -;
#X obj 290 763 ignore 10;
#X obj 113 585 > 100;
#X obj 128 606 < 600;
#X obj 203 586 > 600;
#X obj 218 607 < 1500;
#X obj 290 585 > 1500;
#X obj 305 606 < 30000;
#X obj 98 794 tgl 40 0 empty empty empty 17 7 0 10 -262144 -1 -1 0
1;
#X obj 203 792 tgl 40 0 empty empty empty 17 7 0 10 -262144 -1 -1 0
1;
#X obj 292 792 tgl 40 0 empty empty empty 17 7 0 10 -262144 -1 -1 0
1;
#X msg 105 873 digital 12 0;
#X msg 105 902 digital 12 1;
#X msg 203 873 digital 11 0;
#X msg 203 902 digital 11 1;
#X msg 307 874 digital 9 0;
#X msg 295 903 digital 9 1;
#X obj 203 841 sel 1;
#X obj 292 843 sel 1;
#X obj 98 845 sel 1;
#X obj 46 153 env~;
#X floatatom 46 179 5 0 0 0 - - -;
#X floatatom 48 230 5 0 0 0 - - -;
#X obj 181 189 spigot~;
#X obj 111 247 tgl 15 0 empty empty empty 17 7 0 10 -262144 -1 -1 0
1;
#X msg 32 767 0;
#X obj 373 190 spigot~;
#X obj 412 157 tgl 15 0 empty empty empty 17 7 0 10 -262144 -1 -1 1
1;
#X obj 905 -69 spigot~;
#X obj 982 -66 spigot~;
#X obj 1058 -94 tgl 15 0 empty empty empty 17 7 0 10 -262144 -1 -1
0 1;
#X obj 1058 -59 sel 0;
#X obj 1111 -25 del 100;
#X obj 47 129 hip~ 1000;
#X obj 141 114 spigot~;
#X obj 301 36 tgl 40 0 empty empty empty 17 7 0 10 -262144 -1 -1 0
1;
#X obj 256 113 spigot~;
#X obj 48 205 > 50;
#X obj 49 258 sel 1;
#X obj 393 718 tgl 15 0 empty empty empty 17 7 0 10 -262144 -1 -1 0
1;
#X obj 393 738 sel 0;
#X obj 392 760 del 200;
#X obj 1109 136 change;
#X obj 1110 163 bng 15 250 50 0 empty empty empty 17 7 0 10 -262144
-1 -1;
#X obj 1158 154 change;
#X obj 1159 181 bng 15 250 50 0 empty empty empty 17 7 0 10 -262144
-1 -1;
#X msg 1134 46 50;
#X obj 1023 113 sel 1 0;
#X obj 1099 194 change;
#X obj 623 405 env~;
#X floatatom 623 431 5 0 0 0 - - -;
#X floatatom 625 484 5 0 0 0 - - -;
#X obj 625 550 tgl 40 0 empty empty empty 17 7 0 10 -262144 -1 -1 0
1;
#X obj 611 345 adc~ 2;
#X obj 666 294 tgl 40 0 empty empty empty 17 7 0 10 -262144 -1 -1 0
1;
#X obj 621 371 spigot~;
#X obj 625 457 > 50;
#X obj 625 601 sel 1;
#X obj 625 626 bng 15 250 50 0 empty empty empty 17 7 0 10 -262144
-1 -1;
#X obj 653 627 bng 15 250 50 0 empty empty empty 17 7 0 10 -262144
-1 -1;
#X obj 625 521 spigot;
#X msg 690 553 0;
#X connect 2 0 21 0;
#X connect 2 1 4 0;
#X connect 4 0 8 0;
#X connect 5 0 8 0;
#X connect 6 0 5 0;
#X connect 7 0 9 0;
#X connect 8 1 10 0;
#X connect 10 0 7 0;
#X connect 12 0 22 0;
#X connect 21 0 8 0;
#X connect 22 0 8 0;
#X connect 24 0 25 0;
#X connect 25 0 26 0;
#X connect 26 0 27 0;
#X connect 26 0 104 0;
#X connect 26 0 112 0;
#X connect 27 0 120 0;
#X connect 27 0 121 0;
#X connect 28 0 152 0;
#X connect 28 2 154 0;
#X connect 29 0 31 0;
#X connect 30 0 31 1;
#X connect 31 0 32 0;
#X connect 32 0 36 0;
#X connect 33 0 34 0;
#X connect 34 0 99 0;
#X connect 35 0 98 0;
#X connect 36 0 37 0;
#X connect 37 0 86 0;
#X connect 37 0 126 0;
#X connect 38 0 96 0;
#X connect 38 1 97 0;
#X connect 38 2 146 0;
#X connect 38 3 147 0;
#X connect 39 0 40 0;
#X connect 40 0 66 0;
#X connect 41 0 42 0;
#X connect 42 0 67 0;
#X connect 43 0 44 0;
#X connect 44 0 68 0;
#X connect 45 0 46 0;
#X connect 46 0 69 0;
#X connect 47 0 63 0;
#X connect 48 0 49 0;
#X connect 48 0 50 0;
#X connect 49 0 93 0;
#X connect 49 1 92 0;
#X connect 51 0 64 0;
#X connect 52 0 53 0;
#X connect 52 0 165 0;
#X connect 54 0 62 0;
#X connect 55 0 56 0;
#X connect 55 0 57 0;
#X connect 56 0 91 0;
#X connect 56 1 90 0;
#X connect 58 0 65 0;
#X connect 59 0 60 0;
#X connect 59 0 61 0;
#X connect 60 0 89 0;
#X connect 60 1 88 0;
#X connect 62 0 55 0;
#X connect 63 0 48 0;
#X connect 64 0 52 0;
#X connect 65 0 59 0;
#X connect 66 0 58 0;
#X connect 67 0 54 0;
#X connect 68 0 47 0;
#X connect 69 0 51 0;
#X connect 74 0 75 0;
#X connect 75 0 76 0;
#X connect 76 0 77 0;
#X connect 77 0 82 0;
#X connect 77 0 83 0;
#X connect 78 0 80 0;
#X connect 79 0 80 1;
#X connect 80 0 81 0;
#X connect 81 0 84 0;
#X connect 82 0 78 0;
#X connect 83 0 79 0;
#X connect 84 0 85 0;
#X connect 85 0 87 0;
#X connect 96 1 39 0;
#X connect 97 1 41 0;
#X connect 98 0 102 0;
#X connect 99 0 35 0;
#X connect 100 0 8 0;
#X connect 101 0 8 0;
#X connect 102 0 103 0;
#X connect 103 0 101 0;
#X connect 103 1 100 0;
#X connect 104 0 122 0;
#X connect 104 0 123 0;
#X connect 105 0 107 0;
#X connect 106 0 107 1;
#X connect 107 0 108 0;
#X connect 108 0 109 0;
#X connect 109 0 110 0;
#X connect 110 0 111 0;
#X connect 110 0 127 0;
#X connect 112 0 124 0;
#X connect 112 0 125 0;
#X connect 113 0 115 0;
#X connect 114 0 115 1;
#X connect 115 0 116 0;
#X connect 116 0 117 0;
#X connect 117 0 118 0;
#X connect 118 0 119 0;
#X connect 118 0 128 0;
#X connect 120 0 29 0;
#X connect 121 0 30 0;
#X connect 122 0 105 0;
#X connect 123 0 106 0;
#X connect 124 0 113 0;
#X connect 125 0 114 0;
#X connect 126 0 137 0;
#X connect 127 0 135 0;
#X connect 128 0 136 0;
#X connect 129 0 8 0;
#X connect 130 0 8 0;
#X connect 131 0 8 0;
#X connect 132 0 8 0;
#X connect 133 0 8 0;
#X connect 134 0 8 0;
#X connect 135 0 132 0;
#X connect 135 1 131 0;
#X connect 136 0 134 0;
#X connect 136 1 133 0;
#X connect 137 0 130 0;
#X connect 137 1 129 0;
#X connect 138 0 139 0;
#X connect 139 0 155 0;
#X connect 140 0 142 0;
#X connect 140 0 156 0;
#X connect 141 1 24 0;
#X connect 142 0 141 1;
#X connect 143 0 126 0;
#X connect 143 0 127 0;
#X connect 143 0 128 0;
#X connect 144 1 33 0;
#X connect 145 0 144 1;
#X connect 146 1 43 0;
#X connect 147 1 45 0;
#X connect 148 0 147 1;
#X connect 148 0 146 1;
#X connect 148 0 97 1;
#X connect 148 0 96 1;
#X connect 148 0 149 0;
#X connect 149 0 150 0;
#X connect 150 0 53 0;
#X connect 150 0 50 0;
#X connect 150 0 57 0;
#X connect 150 0 61 0;
#X connect 151 0 138 0;
#X connect 152 1 141 0;
#X connect 152 1 151 0;
#X connect 153 0 152 1;
#X connect 153 0 154 1;
#X connect 153 0 157 0;
#X connect 154 1 144 0;
#X connect 155 0 140 0;
#X connect 156 1 143 0;
#X connect 157 0 158 0;
#X connect 158 0 159 0;
#X connect 159 0 128 0;
#X connect 159 0 127 0;
#X connect 159 0 126 0;
#X connect 159 0 98 0;
#X connect 160 0 161 0;
#X connect 162 0 163 0;
#X connect 164 0 64 0;
#X connect 165 0 94 0;
#X connect 165 0 162 0;
#X connect 165 0 166 0;
#X connect 165 1 95 0;
#X connect 165 1 160 0;
#X connect 165 1 166 0;
#X connect 167 0 168 0;
#X connect 168 0 174 0;
#X connect 169 0 178 0;
#X connect 170 0 175 0;
#X connect 171 0 173 0;
#X connect 172 0 173 1;
#X connect 172 0 178 1;
#X connect 173 1 167 0;
#X connect 174 0 169 0;
#X connect 175 0 176 0;
#X connect 175 1 177 0;
#X connect 178 0 170 0;
#X connect 179 0 175 0;
